HIERARCHY
ROOT RootJoint
{
    OFFSET   0.000000   0.000000   0.000000
    CHANNELS 6 Xposition Yposition Zposition Xrotation Yrotation Zrotation
    JOINT pelvis_lowerback
    {
        OFFSET   0.000000   0.093605   0.000000
        CHANNELS 3 Xrotation Yrotation Zrotation
        JOINT lowerback_torso
        {
            OFFSET   0.000000   0.100000   0.000000
            CHANNELS 3 Xrotation Yrotation Zrotation
            JOINT torso_head
            {
                OFFSET   0.000000   0.282350   0.000000
                CHANNELS 3 Xrotation Yrotation Zrotation
                End Site
                {
                    OFFSET   0.000000   0.192650   0.000000
                }
            }
            JOINT rTorso_Clavicle
            {
                OFFSET  -0.001000   0.157500   0.000000
                CHANNELS 3 Xrotation Yrotation Zrotation
                JOINT rShoulder
                {
                    OFFSET  -0.117647   0.000000   0.000000
                    CHANNELS 3 Xrotation Yrotation Zrotation
                    JOINT rElbow
                    {
                        OFFSET  -0.245000   0.000000   0.000000
                        CHANNELS 3 Xrotation Yrotation Zrotation
                        JOINT rWrist
                        {
                            OFFSET  -0.240000   0.000000   0.000000
                            CHANNELS 3 Xrotation Yrotation Zrotation
                            End Site
                            {
                                OFFSET  -0.116353  -0.002500   0.000000
                            }
                        }
                    }
                }
            }
            JOINT lTorso_Clavicle
            {
                OFFSET   0.001000   0.157500   0.000000
                CHANNELS 3 Xrotation Yrotation Zrotation
                JOINT lShoulder
                {
                    OFFSET   0.117647   0.000000   0.000000
                    CHANNELS 3 Xrotation Yrotation Zrotation
                    JOINT lElbow
                    {
                        OFFSET   0.245000   0.000000   0.000000
                        CHANNELS 3 Xrotation Yrotation Zrotation
                        JOINT lWrist
                        {
                            OFFSET   0.240000   0.000000   0.000000
                            CHANNELS 3 Xrotation Yrotation Zrotation
                            End Site
                            {
                                OFFSET   0.116353  -0.002500   0.000000
                            }
                        }
                    }
                }
            }
        }
    }
    JOINT rHip
    {
        OFFSET  -0.100000  -0.051395   0.000000
        CHANNELS 3 Xrotation Yrotation Zrotation
        JOINT rKnee
        {
            OFFSET   0.000000  -0.410000   0.000000
            CHANNELS 3 Xrotation Yrotation Zrotation
            JOINT rAnkle
            {
                OFFSET   0.000000  -0.390000   0.000000
                CHANNELS 3 Xrotation Yrotation Zrotation
                JOINT rToeJoint
                {
                    OFFSET   0.000000  -0.050000   0.130000
                    CHANNELS 3 Xrotation Yrotation Zrotation
                    End Site
                    {
                        OFFSET  -0.010000   0.002000   0.060000
                    }
                }
            }
        }
    }
    JOINT lHip
    {
        OFFSET   0.100000  -0.051395   0.000000
        CHANNELS 3 Xrotation Yrotation Zrotation
        JOINT lKnee
        {
            OFFSET   0.000000  -0.410000   0.000000
            CHANNELS 3 Xrotation Yrotation Zrotation
            JOINT lAnkle
            {
                OFFSET   0.000000  -0.390000   0.000000
                CHANNELS 3 Xrotation Yrotation Zrotation
                JOINT lToeJoint
                {
                    OFFSET   0.000000  -0.050000   0.130000
                    CHANNELS 3 Xrotation Yrotation Zrotation
                    End Site
                    {
                        OFFSET   0.010000   0.002000   0.060000
                    }
                }
            }
        }
    }
}
MOTION
Frames: 5
Frame Time:   0.008333
 -3.503213   0.888731   6.981472 -27.965782 -62.427424 -18.296004  11.032421   1.696722  -0.736913   3.549761   2.473563   0.557651   2.178630   1.521728  -2.491696   2.445889  -4.638787  -3.778900   5.005347   1.294668  56.941817  -0.035870  47.119394   0.034837  -2.529846   3.630948 -10.462506   5.309956   9.334166   4.279603  12.610172  -3.197570 -57.742332  -0.074957 -78.603403  -0.074888  -0.708149  -4.177262   8.278609   3.922802  -4.771591  -2.004013  35.075269  -0.001982  -0.006799 -23.867162  -1.454977   0.353233  -9.146359  -0.014170  -0.015569  -9.049622  -2.438408  -6.794881  25.411791  -0.004352   0.034463  -2.853706   0.875662  -5.979286  -0.825162   0.002364   0.003152
 -3.500352   0.888096   6.979614 -27.851885 -61.642177 -18.015583  11.399242   1.613109  -0.669650   3.610351   2.367748   0.652978   2.181071   1.514187  -2.551901   2.397804  -4.591473  -3.512711   5.179469   1.128811  56.880344  -0.036828  45.995126   0.035975  -2.551517   3.708181 -10.327616   5.068246   9.257952   3.986483  11.968580  -3.186466 -57.447107  -0.092034 -79.376376  -0.092192  -0.771193  -4.037136   8.280841   4.266849  -5.251700  -1.963961  34.648650  -0.001712  -0.006688 -24.467234  -1.632767  -0.211240  -8.039121  -0.007565  -0.010152  -9.775816  -2.377388  -6.615117  26.879017  -0.004811   0.038345  -3.057079   0.669881  -6.456802  -0.515544   0.002579   0.004255
 -3.497564   0.887433   6.977816 -27.766904 -60.898645 -17.742706  11.741040   1.553903  -0.617130   3.662295   2.267260   0.728521   2.189039   1.513413  -2.616971   2.373974  -4.559221  -3.262978   5.364045   0.955794  56.811597  -0.036458  44.918454   0.036105  -2.594790   3.641521 -10.191894   4.794895   9.166732   3.716333  11.321481  -3.198395 -57.171568  -0.108697 -80.134345  -0.109016  -0.806039  -4.102911   8.342717   4.600434  -5.705185  -1.949360  34.222548  -0.001486  -0.006536 -25.059145  -1.815043  -0.762333  -7.026728  -0.002576  -0.006478 -10.460696  -2.316285  -6.434545  28.298369  -0.005206   0.040818  -3.243453   0.480750  -6.902733  -0.213775   0.002631   0.005077
 -3.494844   0.886761   6.976082 -27.708939 -60.204970 -17.485162  12.056312   1.493803  -0.572944   3.705577   2.163639   0.790946   2.196816   1.514547  -2.680620   2.357812  -4.534733  -3.033347   5.542478   0.788813  56.743715  -0.034899  43.908322   0.034949  -2.644005   3.527971 -10.061481   4.522384   9.070164   3.464182  10.700457  -3.220116 -56.915235  -0.122175 -80.851697  -0.122478  -0.828123  -4.251147   8.430185   4.911188  -6.124215  -1.955728  33.814715  -0.001299  -0.006296 -25.627253  -1.984806  -1.287233  -6.098965   0.001027  -0.003941 -11.093504  -2.263622  -6.245839  29.631040  -0.005578   0.041758  -3.418567   0.305984  -7.319291   0.063625   0.002532   0.005541
 -3.492186   0.886091   6.974412 -27.677364 -59.564133 -17.247041  12.346719   1.429169  -0.534584   3.741502   2.057134   0.844033   2.203498   1.515975  -2.741032   2.344406  -4.515544  -2.822830   5.710693   0.630000  56.677431  -0.032585  42.964376   0.032861  -2.693003   3.406163  -9.942742   4.260590   8.973535   3.227917  10.113793  -3.247003 -56.676628  -0.132245 -81.524857  -0.132392  -0.844543  -4.425383   8.521791   5.197004  -6.511175  -1.980236  33.427482  -0.001134  -0.005968 -26.168549  -2.141400  -1.785058  -5.248431   0.003543  -0.002258 -11.674697  -2.220272  -6.047588  30.876952  -0.005944   0.041476  -3.583450   0.144424  -7.708347   0.317368   0.002331   0.005721
